<svg width="18" height="20" viewBox="0 0 18 20" fill="none" xmlns="http://www.w3.org/2000/svg">
<path d="M12.3327 0.416016V3.33268C12.3327 3.76028 12.497 4.17153 12.7917 4.48135C13.0864 4.79118 13.4889 4.97588 13.916 4.99727L13.9993 4.99935H17.3327V17.916C17.3327 18.1349 17.2896 18.3516 17.2058 18.5538C17.1221 18.756 16.9993 18.9398 16.8445 19.0945C16.6898 19.2493 16.506 19.3721 16.3038 19.4558C16.1016 19.5396 15.8849 19.5827 15.666 19.5827H2.33268C2.11381 19.5827 1.89709 19.5396 1.69488 19.4558C1.49267 19.3721 1.30894 19.2493 1.15417 19.0945C0.999407 18.9398 0.876641 18.756 0.792883 18.5538C0.709125 18.3516 0.666016 18.1349 0.666016 17.916V2.08268C0.666016 1.86381 0.709125 1.64709 0.792883 1.44488C0.876641 1.24267 0.999407 1.05894 1.15417 0.904171C1.30894 0.749407 1.49267 0.626641 1.69488 0.542883C1.89709 0.459125 2.11381 0.416016 2.33268 0.416016H12.3327ZM11.6827 8.33268C11.3456 8.33268 11.1089 8.54101 11.006 8.87018L10.3402 10.9035L9.65685 8.87935C9.60018 8.7181 9.53102 8.59476 9.43518 8.50351C9.31504 8.39088 9.15567 8.32959 8.99102 8.33268C8.8206 8.33268 8.66602 8.3906 8.54685 8.50351C8.45102 8.59476 8.38143 8.7181 8.32602 8.8756L7.66102 10.9018L6.98268 8.84935C6.88893 8.53685 6.65602 8.33268 6.32435 8.33268C6.12018 8.33268 5.94935 8.38268 5.82727 8.51435C5.73537 8.61275 5.67942 8.73932 5.66852 8.87351C5.65768 8.98518 5.68227 9.11185 5.73518 9.26685C5.77393 9.37935 5.80685 9.47935 5.83393 9.56726L6.94643 12.7648C7.01102 12.9489 7.0956 13.0889 7.21852 13.1843C7.34477 13.2827 7.49727 13.3327 7.66185 13.3327C7.93976 13.3327 8.16143 13.1893 8.27602 12.9452C8.34143 12.806 8.40643 12.6373 8.47268 12.4381L8.98935 10.8473L9.59352 12.7252C9.62852 12.861 9.69393 12.9935 9.78726 13.1035C9.91852 13.2577 10.1093 13.3327 10.3285 13.3327C10.5168 13.3327 10.686 13.2702 10.8123 13.1439C10.9052 13.0514 10.9785 12.9298 11.0389 12.7789L12.1531 9.5781C12.1864 9.48893 12.2239 9.37893 12.2648 9.25435C12.3168 9.09518 12.341 8.9681 12.3302 8.85476C12.3183 8.72647 12.2642 8.60574 12.1764 8.51143C12.0556 8.38018 11.8873 8.33268 11.6827 8.33268Z" fill="#3C97FF"/>
</svg>
